{
	"asset":{
		"generator":"Khronos glTF Blender I/O v4.5.49",
		"version":"2.0"
	},
	"extensionsUsed":[
		"KHR_materials_specular"
	],
	"scene":0,
	"scenes":[
		{
			"name":"Scene",
			"nodes":[
				0,
				1,
				2
			]
		}
	],
	"nodes":[
		{
			"mesh":0,
			"name":"head",
			"rotation":[
				0.7071068286895752,
				0,
				0,
				0.7071068286895752
			]
		},
		{
			"mesh":1,
			"name":"head.001",
			"rotation":[
				0.7071068286895752,
				0,
				0,
				0.7071068286895752
			]
		},
		{
			"mesh":2,
			"name":"head.002",
			"rotation":[
				0.7071068286895752,
				0,
				0,
				0.7071068286895752
			]
		}
	],
	"materials":[
		{
			"alphaMode":"BLEND",
			"doubleSided":true,
			"extensions":{
				"KHR_materials_specular":{
					"specularFactor":0.125490203499794
				}
			},
			"name":"Handle1Mtl",
			"pbrMetallicRoughness":{
				"baseColorTexture":{
					"index":0
				},
				"metallicFactor":0
			}
		},
		{
			"alphaMode":"BLEND",
			"doubleSided":true,
			"extensions":{
				"KHR_materials_specular":{
					"specularFactor":0.125490203499794
				}
			},
			"name":"Head1Mtl",
			"pbrMetallicRoughness":{
				"baseColorTexture":{
					"index":1
				},
				"metallicFactor":0
			}
		}
	],
	"meshes":[
		{
			"name":"head",
			"primitives":[
				{
					"attributes":{
						"POSITION":0,
						"NORMAL":1,
						"TEXCOORD_0":2
					},
					"indices":3,
					"material":0
				}
			]
		},
		{
			"name":"head.001",
			"primitives":[
				{
					"attributes":{
						"POSITION":4,
						"NORMAL":5,
						"TEXCOORD_0":6
					},
					"indices":7,
					"material":1
				}
			]
		},
		{
			"name":"head.002",
			"primitives":[
				{
					"attributes":{
						"POSITION":8,
						"NORMAL":9,
						"TEXCOORD_0":10
					},
					"indices":11,
					"material":0
				}
			]
		}
	],
	"textures":[
		{
			"sampler":0,
			"source":0
		},
		{
			"sampler":0,
			"source":1
		}
	],
	"images":[
		{
			"mimeType":"image/png",
			"name":"Handle1_diff",
			"uri":"Handle1_diff.png"
		},
		{
			"mimeType":"image/png",
			"name":"Head1_diff",
			"uri":"Head1_diff.png"
		}
	],
	"accessors":[
		{
			"bufferView":0,
			"componentType":5126,
			"count":264,
			"max":[
				0.7017555236816406,
				0.9040671586990356,
				0.6131800413131714
			],
			"min":[
				-0.7029837965965271,
				-0.9070169925689697,
				-0.7915600538253784
			],
			"type":"VEC3"
		},
		{
			"bufferView":1,
			"componentType":5126,
			"count":264,
			"type":"VEC3"
		},
		{
			"bufferView":2,
			"componentType":5126,
			"count":264,
			"type":"VEC2"
		},
		{
			"bufferView":3,
			"componentType":5123,
			"count":1158,
			"type":"SCALAR"
		},
		{
			"bufferView":4,
			"componentType":5126,
			"count":152,
			"max":[
				0.7055854201316833,
				0.38647085428237915,
				-0.10074692964553833
			],
			"min":[
				0.614065408706665,
				-0.38942068815231323,
				-0.271391898393631
			],
			"type":"VEC3"
		},
		{
			"bufferView":5,
			"componentType":5126,
			"count":152,
			"type":"VEC3"
		},
		{
			"bufferView":6,
			"componentType":5126,
			"count":152,
			"type":"VEC2"
		},
		{
			"bufferView":7,
			"componentType":5123,
			"count":576,
			"type":"SCALAR"
		},
		{
			"bufferView":8,
			"componentType":5126,
			"count":241,
			"max":[
				0.2517144978046417,
				0.534595251083374,
				-0.7915599346160889
			],
			"min":[
				-0.25293758511543274,
				-0.5375447273254395,
				-1.9376299381256104
			],
			"type":"VEC3"
		},
		{
			"bufferView":9,
			"componentType":5126,
			"count":241,
			"type":"VEC3"
		},
		{
			"bufferView":10,
			"componentType":5126,
			"count":241,
			"type":"VEC2"
		},
		{
			"bufferView":11,
			"componentType":5123,
			"count":1008,
			"type":"SCALAR"
		}
	],
	"bufferViews":[
		{
			"buffer":0,
			"byteLength":3168,
			"byteOffset":0,
			"target":34962
		},
		{
			"buffer":0,
			"byteLength":3168,
			"byteOffset":3168,
			"target":34962
		},
		{
			"buffer":0,
			"byteLength":2112,
			"byteOffset":6336,
			"target":34962
		},
		{
			"buffer":0,
			"byteLength":2316,
			"byteOffset":8448,
			"target":34963
		},
		{
			"buffer":0,
			"byteLength":1824,
			"byteOffset":10764,
			"target":34962
		},
		{
			"buffer":0,
			"byteLength":1824,
			"byteOffset":12588,
			"target":34962
		},
		{
			"buffer":0,
			"byteLength":1216,
			"byteOffset":14412,
			"target":34962
		},
		{
			"buffer":0,
			"byteLength":1152,
			"byteOffset":15628,
			"target":34963
		},
		{
			"buffer":0,
			"byteLength":2892,
			"byteOffset":16780,
			"target":34962
		},
		{
			"buffer":0,
			"byteLength":2892,
			"byteOffset":19672,
			"target":34962
		},
		{
			"buffer":0,
			"byteLength":1928,
			"byteOffset":22564,
			"target":34962
		},
		{
			"buffer":0,
			"byteLength":2016,
			"byteOffset":24492,
			"target":34963
		}
	],
	"samplers":[
		{
			"magFilter":9729,
			"minFilter":9987
		}
	],
	"buffers":[
		{
			"byteLength":26508,
			"uri":"scene.bin"
		}
	]
}
